{
  "accessors": [
    {
      "bufferView": 3,
      "componentType": 5126,
      "count": 7873,
      "max": [
        1.8617573976516724,
        4.425497531890869,
        1.0405540466308594
      ],
      "min": [
        -1.8617573976516724,
        -0.11772584170103073,
        -0.8730003237724304
      ],
      "type": "VEC3"
    },
    {
      "bufferView": 3,
      "byteOffset": 94476,
      "componentType": 5126,
      "count": 7873,
      "max": [
        1.0,
        1.0,
        1.0
      ],
      "min": [
        -1.0,
        -1.0,
        -1.0
      ],
      "type": "VEC3"
    },
    {
      "bufferView": 2,
      "componentType": 5126,
      "count": 7873,
      "max": [
        0.9970740079879761,
        0.9971150159835815
      ],
      "min": [
        0.0027149999514222145,
        0.0016820000018924475
      ],
      "type": "VEC2"
    },
    {
      "bufferView": 1,
      "componentType": 5125,
      "count": 22497,
      "type": "SCALAR"
    },
    {
      "bufferView": 5,
      "componentType": 5126,
      "count": 42,
      "max": [
        1.0,
        5.949173943231852e-22,
        0.0,
        0.0,
        0.0,
        1.0,
        9.123083799522647e-08,
        0.0,
        8.455324973510869e-08,
        9.123084510065382e-08,
        1.0,
        0.0,
        0.6771144866943359,
        0.0,
        0.3975432217121124,
        1.0
      ],
      "min": [
        -0.5599709153175354,
        0.0,
        -8.455324973510869e-08,
        0.0,
        -1.3775473004049715e-14,
        0.5599708557128906,
        -9.123084510065382e-08,
        0.0,
        0.0,
        0.0,
        -0.5599709153175354,
        0.0,
        -0.6771097779273987,
        -2.572777271270752,
        -0.492659330368042,
        1.0
      ],
      "type": "MAT4"
    },
    {
      "bufferView": 0,
      "componentType": 5123,
      "count": 7873,
      "type": "VEC4"
    },
    {
      "bufferView": 4,
      "componentType": 5126,
      "count": 7873,
      "max": [
        1.0,
        0.5,
        0.0,
        0.0
      ],
      "min": [
        0.5,
        0.0,
        0.0,
        0.0
      ],
      "type": "VEC4"
    }
  ],
  "asset": {
    "extras": {
      "author": "ijackprovostjr (https://sketchfab.com/ijackprovostjr)",
      "license": "CC-BY-4.0 (http://creativecommons.org/licenses/by/4.0/)",
      "source": "https://sketchfab.com/3d-models/wargreymon-digimon-d93136302b6244a190b8a3fc22da0e1c",
      "title": "Wargreymon digimon"
    },
    "generator": "Sketchfab-15.25.0",
    "version": "2.0"
  },
  "bufferViews": [
    {
      "buffer": 0,
      "byteLength": 62984,
      "byteStride": 8,
      "name": "shortBufferViews",
      "target": 34962
    },
    {
      "buffer": 0,
      "byteLength": 89988,
      "byteOffset": 62984,
      "name": "floatBufferViews",
      "target": 34963
    },
    {
      "buffer": 0,
      "byteLength": 62984,
      "byteOffset": 152972,
      "byteStride": 8,
      "name": "floatBufferViews",
      "target": 34962
    },
    {
      "buffer": 0,
      "byteLength": 188952,
      "byteOffset": 215956,
      "byteStride": 12,
      "name": "floatBufferViews",
      "target": 34962
    },
    {
      "buffer": 0,
      "byteLength": 125968,
      "byteOffset": 404908,
      "byteStride": 16,
      "name": "floatBufferViews",
      "target": 34962
    },
    {
      "buffer": 0,
      "byteLength": 2688,
      "byteOffset": 530876,
      "name": "floatBufferViews"
    }
  ],
  "buffers": [
    {
      "byteLength": 533564,
      "uri": "scene.bin"
    }
  ],
  "images": [
    {
      "uri": "textures/chr027a01_baseColor.png"
    }
  ],
  "materials": [
    {
      "doubleSided": true,
      "name": "chr027a01",
      "pbrMetallicRoughness": {
        "baseColorTexture": {
          "index": 0
        },
        "metallicFactor": 0.0,
        "roughnessFactor": 0.5
      }
    }
  ],
  "meshes": [
    {
      "name": "Object_0",
      "primitives": [
        {
          "attributes": {
            "JOINTS_0": 5,
            "NORMAL": 1,
            "POSITION": 0,
            "TEXCOORD_0": 2,
            "WEIGHTS_0": 6
          },
          "indices": 3,
          "material": 0,
          "mode": 4
        }
      ]
    }
  ],
  "nodes": [
    {
      "children": [
        1
      ],
      "matrix": [
        1.0,
        0.0,
        0.0,
        0.0,
        0.0,
        2.220446049250313e-16,
        -1.0,
        0.0,
        0.0,
        1.0,
        2.220446049250313e-16,
        0.0,
        0.0,
        0.0,
        0.0,
        1.0
      ],
      "name": "Sketchfab_model"
    },
    {
      "children": [
        2
      ],
      "name": "root"
    },
    {
      "children": [
        3
      ],
      "matrix": [
        1.0,
        0.0,
        0.0,
        0.0,
        0.0,
        2.220446049250313e-16,
        1.0,
        0.0,
        0.0,
        -1.0,
        2.220446049250313e-16,
        0.0,
        0.0,
        0.0,
        0.0,
        1.0
      ],
      "name": "GLTF_SceneRootNode"
    },
    {
      "children": [
        4
      ],
      "matrix": [
        1.7858071327209473,
        0.0,
        0.0,
        0.0,
        0.0,
        -3.0106457592710434e-07,
        1.785807132720922,
        0.0,
        0.0,
        -1.785807132720922,
        -3.0106457592710434e-07,
        0.0,
        0.0,
        0.0,
        0.0,
        1.0
      ],
      "name": "Armature_44"
    },
    {
      "children": [
        5,
        7,
        6
      ],
      "name": "GLTF_created_0"
    },
    {
      "children": [
        8
      ],
      "name": "GLTF_created_0_rootJoint"
    },
    {
      "name": "chr027_43"
    },
    {
      "mesh": 0,
      "name": "Object_7",
      "skin": 0
    },
    {
      "children": [
        9
      ],
      "name": "chr027_42",
      "rotation": [
        -0.7071068286895752,
        0.0,
        0.0,
        0.7071068286895752
      ]
    },
    {
      "children": [
        10
      ],
      "name": "Scale_41"
    },
    {
      "children": [
        11,
        48
      ],
      "name": "chr027_rd_40"
    },
    {
      "children": [
        12,
        13,
        14,
        15,
        47
      ],
      "name": "GRP_joint_38"
    },
    {
      "name": "CP01_2",
      "scale": [
        1.0,
        0.9999999403953552,
        1.0
      ],
      "translation": [
        0.0,
        1.7516775131225586,
        -0.06568791717290878
      ]
    },
    {
      "name": "FP01_3",
      "scale": [
        1.0,
        0.9999999403953552,
        1.0
      ],
      "translation": [
        0.0,
        1.5327179431915283,
        0.492659330368042
      ]
    },
    {
      "name": "GP01_4",
      "translation": [
        0.0,
        0.0,
        0.30106961727142334
      ]
    },
    {
      "children": [
        16
      ],
      "name": "J_root_36"
    },
    {
      "children": [
        17,
        21,
        25,
        44,
        45,
        46
      ],
      "name": "J_center_35",
      "translation": [
        0.0,
        1.4584248065948486,
        -0.013017154298722744
      ]
    },
    {
      "children": [
        18
      ],
      "name": "J_leg_l_8",
      "scale": [
        1.0,
        0.9999999403953552,
        1.0
      ],
      "translation": [
        0.15747687220573425,
        -0.20327973365783691,
        -0.05033337324857712
      ]
    },
    {
      "children": [
        19
      ],
      "name": "J_knee_l_7",
      "translation": [
        0.06188327074050903,
        -0.5040055513381958,
        0.0
      ]
    },
    {
      "children": [
        20
      ],
      "name": "J_foot_l_6",
      "translation": [
        0.06934015452861786,
        -0.5647380352020264,
        -0.04477725923061371
      ]
    },
    {
      "name": "J_toe_l_5",
      "translation": [
        0.015550881624221802,
        -0.12665334343910217,
        0.28660187125205994
      ]
    },
    {
      "children": [
        22
      ],
      "name": "J_leg_r_12",
      "scale": [
        1.0,
        0.9999999403953552,
        1.0
      ],
      "translation": [
        -0.15747687220573425,
        -0.20327973365783691,
        -0.05033337324857712
      ]
    },
    {
      "children": [
        23
      ],
      "name": "J_knee_r_11",
      "translation": [
        -0.06188327074050903,
        -0.5040055513381958,
        0.0
      ]
    },
    {
      "children": [
        24
      ],
      "name": "J_foot_r_10",
      "translation": [
        -0.06934015452861786,
        -0.5647380352020264,
        -0.04477725923061371
      ]
    },
    {
      "name": "J_toe_r_9",
      "translation": [
        -0.015550881624221802,
        -0.12665334343910217,
        0.28660187125205994
      ]
    },
    {
      "children": [
        26
      ],
      "name": "J_spine01_31",
      "translation": [
        0.0,
        1.1920928955078125e-07,
        0.0
      ]
    },
    {
      "children": [
        27,
        32,
        37,
        40,
        42
      ],
      "name": "J_spine02_30",
      "scale": [
        1.0,
        0.9999999403953552,
        1.0
      ],
      "translation": [
        0.0,
        0.23214662075042725,
        9.313225746154785e-10
      ]
    },
    {
      "children": [
        28
      ],
      "name": "J_collar_l_17",
      "translation": [
        0.11443380266427994,
        0.20741510391235352,
        -0.05990738421678543
      ]
    },
    {
      "children": [
        29,
        30
      ],
      "name": "J_arm_l_16",
      "translation": [
        0.20177675783634186,
        -0.02098548412322998,
        0.0
      ]
    },
    {
      "name": "J_armor_l_13",
      "translation": [
        0.0,
        1.1920928955078125e-07,
        0.0
      ]
    },
    {
      "children": [
        31
      ],
      "name": "J_elbow_l_15",
      "translation": [
        0.19479143619537354,
        -0.33739185333251953,
        0.0
      ]
    },
    {
      "name": "J_weapon_l_14",
      "translation": [
        0.16610777378082275,
        -0.28770971298217773,
        0.0
      ]
    },
    {
      "children": [
        33
      ],
      "name": "J_collar_r_22",
      "translation": [
        -0.11443380266427994,
        0.20741510391235352,
        -0.05990738421678543
      ]
    },
    {
      "children": [
        34,
        35
      ],
      "name": "J_arm_r_21",
      "translation": [
        -0.20177675783634186,
        -0.02098548412322998,
        0.0
      ]
    },
    {
      "name": "J_armor_r_18",
      "translation": [
        0.0,
        1.1920928955078125e-07,
        0.0
      ]
    },
    {
      "children": [
        36
      ],
      "name": "J_elbow_r_20",
      "translation": [
        -0.19479143619537354,
        -0.33739185333251953,
        0.0
      ]
    },
    {
      "name": "J_weapon_r_19",
      "translation": [
        -0.16611248254776,
        -0.28770697116851807,
        0.0
      ]
    },
    {
      "children": [
        38
      ],
      "name": "J_neck_25",
      "translation": [
        0.0,
        0.3355776071548462,
        -0.06770234555006027
      ]
    },
    {
      "children": [
        39
      ],
      "name": "J_head_24",
      "translation": [
        0.0,
        0.1373753547668457,
        0.08312805742025375
      ]
    },
    {
      "name": "FacePos_23",
      "translation": [
        0.0,
        0.05090808868408203,
        0.10510066151618958
      ]
    },
    {
      "children": [
        41
      ],
      "name": "J_shield01_l_27",
      "translation": [
        0.08818602561950684,
        0.13636279106140137,
        -0.28034508228302
      ]
    },
    {
      "name": "J_shield02_l_26",
      "translation": [
        0.014018885791301727,
        1.1920928955078125e-07,
        -0.10418099164962769
      ]
    },
    {
      "children": [
        43
      ],
      "name": "J_shield01_r_29",
      "rotation": [
        0.0,
        -1.0,
        0.0,
        7.549790126404332e-08
      ],
      "translation": [
        -0.08818602561950684,
        0.13636279106140137,
        -0.28034508228302
      ]
    },
    {
      "name": "J_shield02_r_28",
      "rotation": [
        0.0,
        -3.178651297730539e-08,
        0.0,
        1.0
      ],
      "translation": [
        0.014018870890140533,
        1.1920928955078125e-07,
        0.10418100655078888
      ]
    },
    {
      "name": "J_yoroi_f_32",
      "translation": [
        0.0,
        -0.10479938983917236,
        0.1627308428287506
      ]
    },
    {
      "name": "J_yoroi_l_33",
      "translation": [
        0.2708914577960968,
        -0.08806002140045166,
        -0.04223185405135155
      ]
    },
    {
      "name": "J_yoroi_r_34",
      "translation": [
        -0.2708914577960968,
        -0.08806002140045166,
        -0.04223185405135155
      ]
    },
    {
      "name": "TP01_37",
      "scale": [
        1.0,
        0.9999999403953552,
        1.0
      ],
      "translation": [
        0.0,
        2.5727767944335938,
        0.0
      ]
    },
    {
      "name": "GRP_mesh_39"
    }
  ],
  "samplers": [
    {
      "magFilter": 9729,
      "minFilter": 9987,
      "wrapS": 10497,
      "wrapT": 10497
    }
  ],
  "scene": 0,
  "scenes": [
    {
      "name": "Sketchfab_Scene",
      "nodes": [
        0
      ]
    }
  ],
  "skins": [
    {
      "inverseBindMatrices": 4,
      "joints": [
        5,
        8,
        9,
        10,
        11,
        12,
        13,
        14,
        15,
        16,
        17,
        18,
        19,
        20,
        21,
        22,
        23,
        24,
        25,
        26,
        27,
        28,
        29,
        30,
        31,
        32,
        33,
        34,
        35,
        36,
        37,
        38,
        39,
        40,
        41,
        42,
        43,
        44,
        45,
        46,
        47,
        48
      ],
      "skeleton": 5
    }
  ],
  "textures": [
    {
      "sampler": 0,
      "source": 0
    }
  ]
}
