{
  "accessors": [
    {
      "bufferView": 1,
      "componentType": 5126,
      "count": 65532,
      "max": [
        0.6899614334106445,
        1.451339840888977,
        0.30306175351142883
      ],
      "min": [
        -0.6899614930152893,
        0.6527500748634338,
        -1.182182788848877
      ],
      "type": "VEC3"
    },
    {
      "bufferView": 1,
      "byteOffset": 786384,
      "componentType": 5126,
      "count": 65532,
      "max": [
        0.9999993443489075,
        0.9999510645866394,
        0.9999468922615051
      ],
      "min": [
        -0.9999966621398926,
        -0.9999527931213379,
        -0.9999887943267822
      ],
      "type": "VEC3"
    },
    {
      "bufferView": 2,
      "componentType": 5126,
      "count": 65532,
      "max": [
        0.8627451062202454,
        0.8745098114013672,
        0.9019607901573181,
        1.0
      ],
      "min": [
        0.1568627506494522,
        0.21176470816135406,
        0.4745098054409027,
        1.0
      ],
      "type": "VEC4"
    },
    {
      "bufferView": 0,
      "componentType": 5125,
      "count": 383817,
      "type": "SCALAR"
    },
    {
      "bufferView": 1,
      "byteOffset": 1572768,
      "componentType": 5126,
      "count": 4119,
      "max": [
        0.6204226016998291,
        1.3718904256820679,
        0.28115376830101013
      ],
      "min": [
        -0.6292033195495605,
        1.1548945903778076,
        -1.17029869556427
      ],
      "type": "VEC3"
    },
    {
      "bufferView": 1,
      "byteOffset": 1622196,
      "componentType": 5126,
      "count": 4119,
      "max": [
        0.9997473955154419,
        0.9996752142906189,
        0.9999744296073914
      ],
      "min": [
        -0.9984075427055359,
        -0.9972712397575378,
        -0.9996536374092102
      ],
      "type": "VEC3"
    },
    {
      "bufferView": 2,
      "byteOffset": 1048512,
      "componentType": 5126,
      "count": 4119,
      "max": [
        0.8627451062202454,
        0.8745098114013672,
        0.9019607901573181,
        1.0
      ],
      "min": [
        0.16078431904315948,
        0.21960784494876862,
        0.4745098054409027,
        1.0
      ],
      "type": "VEC4"
    },
    {
      "bufferView": 0,
      "byteOffset": 1535268,
      "componentType": 5125,
      "count": 10383,
      "type": "SCALAR"
    },
    {
      "bufferView": 1,
      "byteOffset": 1671624,
      "componentType": 5126,
      "count": 65532,
      "max": [
        0.8400516510009766,
        -0.06953611969947815,
        0.41262394189834595
      ],
      "min": [
        -0.8400516510009766,
        -0.9742558002471924,
        -1.1779464483261108
      ],
      "type": "VEC3"
    },
    {
      "bufferView": 1,
      "byteOffset": 2458008,
      "componentType": 5126,
      "count": 65532,
      "max": [
        0.9999978542327881,
        0.9999696612358093,
        0.9999879598617554
      ],
      "min": [
        -0.9999555349349976,
        -0.9999973773956299,
        -0.9999988079071045
      ],
      "type": "VEC3"
    },
    {
      "bufferView": 2,
      "byteOffset": 1114416,
      "componentType": 5126,
      "count": 65532,
      "max": [
        0.8627451062202454,
        0.8745098114013672,
        0.9019607901573181,
        1.0
      ],
      "min": [
        0.15294118225574493,
        0.21176470816135406,
        0.4745098054409027,
        1.0
      ],
      "type": "VEC4"
    },
    {
      "bufferView": 0,
      "byteOffset": 1576800,
      "componentType": 5125,
      "count": 384336,
      "type": "SCALAR"
    },
    {
      "bufferView": 1,
      "byteOffset": 3244392,
      "componentType": 5126,
      "count": 3477,
      "max": [
        0.6113036870956421,
        -0.15478317439556122,
        0.4111306965351105
      ],
      "min": [
        -0.6111553907394409,
        -0.3851403594017029,
        -0.8977541327476501
      ],
      "type": "VEC3"
    },
    {
      "bufferView": 1,
      "byteOffset": 3286116,
      "componentType": 5126,
      "count": 3477,
      "max": [
        0.999797523021698,
        0.9987731575965881,
        0.9974880218505859
      ],
      "min": [
        -0.9987553954124451,
        -0.9882380962371826,
        -0.9966167211532593
      ],
      "type": "VEC3"
    },
    {
      "bufferView": 2,
      "byteOffset": 2162928,
      "componentType": 5126,
      "count": 3477,
      "max": [
        0.8627451062202454,
        0.8745098114013672,
        0.9019607901573181,
        1.0
      ],
      "min": [
        0.15294118225574493,
        0.21176470816135406,
        0.4745098054409027,
        1.0
      ],
      "type": "VEC4"
    },
    {
      "bufferView": 0,
      "byteOffset": 3114144,
      "componentType": 5125,
      "count": 9090,
      "type": "SCALAR"
    },
    {
      "bufferView": 1,
      "byteOffset": 3327840,
      "componentType": 5126,
      "count": 65532,
      "max": [
        0.45348918437957764,
        1.3578001260757446,
        0.7969031929969788
      ],
      "min": [
        -0.4560752511024475,
        -0.9185324907302856,
        -0.2048521637916565
      ],
      "type": "VEC3"
    },
    {
      "bufferView": 1,
      "byteOffset": 4114224,
      "componentType": 5126,
      "count": 65532,
      "max": [
        0.9999971389770508,
        0.9998534917831421,
        0.9999809265136719
      ],
      "min": [
        -1.0,
        -0.9998819231987,
        -0.9999996423721313
      ],
      "type": "VEC3"
    },
    {
      "bufferView": 2,
      "byteOffset": 2218560,
      "componentType": 5126,
      "count": 65532,
      "max": [
        0.8627451062202454,
        0.8745098114013672,
        0.9019607901573181,
        1.0
      ],
      "min": [
        0.15294118225574493,
        0.21176470816135406,
        0.4745098054409027,
        1.0
      ],
      "type": "VEC4"
    },
    {
      "bufferView": 0,
      "byteOffset": 3150504,
      "componentType": 5125,
      "count": 363960,
      "type": "SCALAR"
    },
    {
      "bufferView": 1,
      "byteOffset": 4900608,
      "componentType": 5126,
      "count": 24439,
      "max": [
        0.4560753107070923,
        1.299558401107788,
        0.7951825261116028
      ],
      "min": [
        -0.45135560631752014,
        -0.9185317754745483,
        -0.20425835251808167
      ],
      "type": "VEC3"
    },
    {
      "bufferView": 1,
      "byteOffset": 5193876,
      "componentType": 5126,
      "count": 24439,
      "max": [
        0.9997901916503906,
        0.9669525027275085,
        0.9974006414413452
      ],
      "min": [
        -0.9977521896362305,
        -0.9997355937957764,
        -0.9997268915176392
      ],
      "type": "VEC3"
    },
    {
      "bufferView": 2,
      "byteOffset": 3267072,
      "componentType": 5126,
      "count": 24439,
      "max": [
        0.8627451062202454,
        0.8745098114013672,
        0.9019607901573181,
        1.0
      ],
      "min": [
        0.15294118225574493,
        0.21176470816135406,
        0.4745098054409027,
        1.0
      ],
      "type": "VEC4"
    },
    {
      "bufferView": 0,
      "byteOffset": 4606344,
      "componentType": 5125,
      "count": 102648,
      "type": "SCALAR"
    },
    {
      "bufferView": 1,
      "byteOffset": 5487144,
      "componentType": 5126,
      "count": 65532,
      "max": [
        0.5993470549583435,
        -0.247885063290596,
        1.4370059967041016
      ],
      "min": [
        -0.5993470549583435,
        -1.7057414054870605,
        -0.07308512181043625
      ],
      "type": "VEC3"
    },
    {
      "bufferView": 1,
      "byteOffset": 6273528,
      "componentType": 5126,
      "count": 65532,
      "max": [
        0.9999994039535522,
        0.9999996423721313,
        0.9999993443489075
      ],
      "min": [
        -0.9999994039535522,
        -0.999998927116394,
        -0.9999953508377075
      ],
      "type": "VEC3"
    },
    {
      "bufferView": 2,
      "byteOffset": 3658096,
      "componentType": 5126,
      "count": 65532,
      "max": [
        0.8627451062202454,
        0.8745098114013672,
        0.9019607901573181,
        1.0
      ],
      "min": [
        0.13725490868091583,
        0.13333334028720856,
        0.13333334028720856,
        1.0
      ],
      "type": "VEC4"
    },
    {
      "bufferView": 0,
      "byteOffset": 5016936,
      "componentType": 5125,
      "count": 275739,
      "type": "SCALAR"
    },
    {
      "bufferView": 1,
      "byteOffset": 7059912,
      "componentType": 5126,
      "count": 65532,
      "max": [
        0.2790183126926422,
        -0.2484070062637329,
        1.4370059967041016
      ],
      "min": [
        -0.5992881059646606,
        -1.7057414054870605,
        -0.07308512181043625
      ],
      "type": "VEC3"
    },
    {
      "bufferView": 1,
      "byteOffset": 7846296,
      "componentType": 5126,
      "count": 65532,
      "max": [
        0.9996258020401001,
        0.9999833703041077,
        0.999557614326477
      ],
      "min": [
        -0.9999834299087524,
        -0.999998927116394,
        -0.9999975562095642
      ],
      "type": "VEC3"
    },
    {
      "bufferView": 2,
      "byteOffset": 4706608,
      "componentType": 5126,
      "count": 65532,
      "max": [
        0.8627451062202454,
        0.8745098114013672,
        0.9019607901573181,
        1.0
      ],
      "min": [
        0.0,
        0.0,
        0.0,
        1.0
      ],
      "type": "VEC4"
    },
    {
      "bufferView": 0,
      "byteOffset": 6119892,
      "componentType": 5125,
      "count": 316233,
      "type": "SCALAR"
    },
    {
      "bufferView": 1,
      "byteOffset": 8632680,
      "componentType": 5126,
      "count": 46307,
      "max": [
        0.5962204933166504,
        -0.247885063290596,
        1.4370059967041016
      ],
      "min": [
        -0.5993470549583435,
        -1.7026194334030151,
        -0.06571873277425766
      ],
      "type": "VEC3"
    },
    {
      "bufferView": 1,
      "byteOffset": 9188364,
      "componentType": 5126,
      "count": 46307,
      "max": [
        0.9999970197677612,
        0.9999833703041077,
        0.9999993443489075
      ],
      "min": [
        -0.9999994039535522,
        -0.9996079802513123,
        -0.9999975562095642
      ],
      "type": "VEC3"
    },
    {
      "bufferView": 2,
      "byteOffset": 5755120,
      "componentType": 5126,
      "count": 46307,
      "max": [
        0.8627451062202454,
        0.8745098114013672,
        0.9019607901573181,
        1.0
      ],
      "min": [
        0.0,
        0.0,
        0.0,
        1.0
      ],
      "type": "VEC4"
    },
    {
      "bufferView": 0,
      "byteOffset": 7384824,
      "componentType": 5125,
      "count": 214818,
      "type": "SCALAR"
    },
    {
      "bufferView": 1,
      "byteOffset": 9744048,
      "componentType": 5126,
      "count": 7030,
      "max": [
        0.9931910634040833,
        0.09518405050039291,
        1.3851675987243652
      ],
      "min": [
        -0.9931910634040833,
        -0.21703340113162994,
        0.5829096436500549
      ],
      "type": "VEC3"
    },
    {
      "bufferView": 1,
      "byteOffset": 9828408,
      "componentType": 5126,
      "count": 7030,
      "max": [
        0.9994809031486511,
        0.9982115030288696,
        0.9907353520393372
      ],
      "min": [
        -0.9994808435440063,
        -0.9997706413269043,
        -0.9926632642745972
      ],
      "type": "VEC3"
    },
    {
      "bufferView": 2,
      "byteOffset": 6496032,
      "componentType": 5126,
      "count": 7030,
      "max": [
        0.8627451062202454,
        0.8745098114013672,
        0.9019607901573181,
        1.0
      ],
      "min": [
        0.15294118225574493,
        0.21176470816135406,
        0.4745098054409027,
        1.0
      ],
      "type": "VEC4"
    },
    {
      "bufferView": 0,
      "byteOffset": 8244096,
      "componentType": 5125,
      "count": 41280,
      "type": "SCALAR"
    },
    {
      "bufferView": 1,
      "byteOffset": 9912768,
      "componentType": 5126,
      "count": 3894,
      "max": [
        0.17989641427993774,
        -1.195705533027649,
        0.6019474267959595
      ],
      "min": [
        -0.17989632487297058,
        -1.2678642272949219,
        0.5073984861373901
      ],
      "type": "VEC3"
    },
    {
      "bufferView": 1,
      "byteOffset": 9959496,
      "componentType": 5126,
      "count": 3894,
      "max": [
        0.9215664863586426,
        -0.37622159719467163,
        0.5581211447715759
      ],
      "min": [
        -0.9215582013130188,
        -0.9353155493736267,
        -0.4281773567199707
      ],
      "type": "VEC3"
    },
    {
      "bufferView": 2,
      "byteOffset": 6608512,
      "componentType": 5126,
      "count": 3894,
      "max": [
        1.0,
        0.9960784316062927,
        0.9960784316062927,
        1.0
      ],
      "min": [
        0.0,
        0.0,
        0.0,
        1.0
      ],
      "type": "VEC4"
    },
    {
      "bufferView": 0,
      "byteOffset": 8409216,
      "componentType": 5125,
      "count": 22560,
      "type": "SCALAR"
    },
    {
      "bufferView": 1,
      "byteOffset": 10006224,
      "componentType": 5126,
      "count": 8104,
      "max": [
        0.8341794013977051,
        -0.42772436141967773,
        -0.9257000684738159
      ],
      "min": [
        -0.8341794013977051,
        -1.0588663816452026,
        -1.1768499612808228
      ],
      "type": "VEC3"
    },
    {
      "bufferView": 1,
      "byteOffset": 10103472,
      "componentType": 5126,
      "count": 8104,
      "max": [
        0.9998204112052917,
        0.9996302723884583,
        0.992598295211792
      ],
      "min": [
        -0.9998204112052917,
        -0.9974329471588135,
        -0.9999972581863403
      ],
      "type": "VEC3"
    },
    {
      "bufferView": 2,
      "byteOffset": 6670816,
      "componentType": 5126,
      "count": 8104,
      "max": [
        0.9215686321258545,
        0.09803921729326248,
        0.8352941274642944,
        1.0
      ],
      "min": [
        0.250980406999588,
        0.07450980693101883,
        0.23529411852359772,
        1.0
      ],
      "type": "VEC4"
    },
    {
      "bufferView": 0,
      "byteOffset": 8499456,
      "componentType": 5125,
      "count": 47160,
      "type": "SCALAR"
    },
    {
      "bufferView": 1,
      "byteOffset": 10200720,
      "componentType": 5126,
      "count": 6728,
      "max": [
        0.6592744588851929,
        -0.3607168197631836,
        0.5785737037658691
      ],
      "min": [
        -0.6592744588851929,
        -0.8950586915016174,
        0.3698171377182007
      ],
      "type": "VEC3"
    },
    {
      "bufferView": 1,
      "byteOffset": 10281456,
      "componentType": 5126,
      "count": 6728,
      "max": [
        0.9982783198356628,
        0.999327540397644,
        0.9999755620956421
      ],
      "min": [
        -0.9982783198356628,
        -0.9955766797065735,
        -0.9994596242904663
      ],
      "type": "VEC3"
    },
    {
      "bufferView": 2,
      "byteOffset": 6800480,
      "componentType": 5126,
      "count": 6728,
      "max": [
        0.8627451062202454,
        0.8745098114013672,
        0.9019607901573181,
        1.0
      ],
      "min": [
        0.15294118225574493,
        0.21176470816135406,
        0.4745098054409027,
        1.0
      ],
      "type": "VEC4"
    },
    {
      "bufferView": 0,
      "byteOffset": 8688096,
      "componentType": 5125,
      "count": 40032,
      "type": "SCALAR"
    },
    {
      "bufferView": 1,
      "byteOffset": 10362192,
      "componentType": 5126,
      "count": 7062,
      "max": [
        0.9114859104156494,
        0.4760061204433441,
        1.2540584802627563
      ],
      "min": [
        -0.9114859104156494,
        -0.17580926418304443,
        0.5614034533500671
      ],
      "type": "VEC3"
    },
    {
      "bufferView": 1,
      "byteOffset": 10446936,
      "componentType": 5126,
      "count": 7062,
      "max": [
        0.9982135891914368,
        0.9976600408554077,
        0.9958088994026184
      ],
      "min": [
        -0.998213529586792,
        -0.9928218722343445,
        -0.9772153496742249
      ],
      "type": "VEC3"
    },
    {
      "bufferView": 2,
      "byteOffset": 6908128,
      "componentType": 5126,
      "count": 7062,
      "max": [
        0.8627451062202454,
        0.8745098114013672,
        0.9019607901573181,
        1.0
      ],
      "min": [
        0.15294118225574493,
        0.21176470816135406,
        0.4745098054409027,
        1.0
      ],
      "type": "VEC4"
    },
    {
      "bufferView": 0,
      "byteOffset": 8848224,
      "componentType": 5125,
      "count": 41280,
      "type": "SCALAR"
    },
    {
      "bufferView": 1,
      "byteOffset": 10531680,
      "componentType": 5126,
      "count": 21376,
      "max": [
        0.15366210043430328,
        -0.9848613739013672,
        0.4824771583080292
      ],
      "min": [
        -0.1536627858877182,
        -1.5391892194747925,
        0.0053553800098598
      ],
      "type": "VEC3"
    },
    {
      "bufferView": 1,
      "byteOffset": 10788192,
      "componentType": 5126,
      "count": 21376,
      "max": [
        0.9984844326972961,
        0.9994975328445435,
        0.997309148311615
      ],
      "min": [
        -0.9984846711158752,
        -0.9987874627113342,
        -0.9954105019569397
      ],
      "type": "VEC3"
    },
    {
      "bufferView": 2,
      "byteOffset": 7021120,
      "componentType": 5126,
      "count": 21376,
      "max": [
        1.0,
        1.0,
        1.0,
        1.0
      ],
      "min": [
        1.0,
        1.0,
        1.0,
        1.0
      ],
      "type": "VEC4"
    },
    {
      "bufferView": 0,
      "byteOffset": 9013344,
      "componentType": 5125,
      "count": 121212,
      "type": "SCALAR"
    },
    {
      "bufferView": 1,
      "byteOffset": 11044704,
      "componentType": 5126,
      "count": 6934,
      "max": [
        0.6724334955215454,
        -0.5508253574371338,
        0.41966477036476135
      ],
      "min": [
        -0.6653726100921631,
        -0.9038670063018799,
        0.16565996408462524
      ],
      "type": "VEC3"
    },
    {
      "bufferView": 1,
      "byteOffset": 11127912,
      "componentType": 5126,
      "count": 6934,
      "max": [
        0.9992693662643433,
        0.9996946454048157,
        0.999360978603363
      ],
      "min": [
        -0.9979065656661987,
        -0.9986551403999329,
        -0.9959023594856262
      ],
      "type": "VEC3"
    },
    {
      "bufferView": 2,
      "byteOffset": 7363136,
      "componentType": 5126,
      "count": 6934,
      "max": [
        0.8627451062202454,
        0.8745098114013672,
        0.9019607901573181,
        1.0
      ],
      "min": [
        0.15294118225574493,
        0.21176470816135406,
        0.4745098054409027,
        1.0
      ],
      "type": "VEC4"
    },
    {
      "bufferView": 0,
      "byteOffset": 9498192,
      "componentType": 5125,
      "count": 41256,
      "type": "SCALAR"
    },
    {
      "bufferView": 1,
      "byteOffset": 11211120,
      "componentType": 5126,
      "count": 7268,
      "max": [
        0.5129551887512207,
        -0.5957714915275574,
        0.33855512738227844
      ],
      "min": [
        -0.5129551887512207,
        -0.8816988468170166,
        -0.02472463995218277
      ],
      "type": "VEC3"
    },
    {
      "bufferView": 1,
      "byteOffset": 11298336,
      "componentType": 5126,
      "count": 7268,
      "max": [
        0.9978968501091003,
        0.999857485294342,
        0.9985520243644714
      ],
      "min": [
        -0.9978969097137451,
        -0.9947847723960876,
        -0.9998132586479187
      ],
      "type": "VEC3"
    },
    {
      "bufferView": 2,
      "byteOffset": 7474080,
      "componentType": 5126,
      "count": 7268,
      "max": [
        0.8627451062202454,
        0.8745098114013672,
        0.9019607901573181,
        1.0
      ],
      "min": [
        0.15294118225574493,
        0.21176470816135406,
        0.4745098054409027,
        1.0
      ],
      "type": "VEC4"
    },
    {
      "bufferView": 0,
      "byteOffset": 9663216,
      "componentType": 5125,
      "count": 43584,
      "type": "SCALAR"
    },
    {
      "bufferView": 1,
      "byteOffset": 11385552,
      "componentType": 5126,
      "count": 12036,
      "max": [
        0.19229575991630554,
        -1.1212588548660278,
        0.6436659097671509
      ],
      "min": [
        -0.1922956109046936,
        -1.2737394571304321,
        0.4865624010562897
      ],
      "type": "VEC3"
    },
    {
      "bufferView": 1,
      "byteOffset": 11529984,
      "componentType": 5126,
      "count": 12036,
      "max": [
        0.9999736547470093,
        0.9998440742492676,
        0.9988980889320374
      ],
      "min": [
        -0.9999735951423645,
        -0.9998650550842285,
        -0.9994227290153503
      ],
      "type": "VEC3"
    },
    {
      "bufferView": 2,
      "byteOffset": 7590368,
      "componentType": 5126,
      "count": 12036,
      "max": [
        1.0,
        1.0,
        1.0,
        1.0
      ],
      "min": [
        0.0,
        0.0,
        0.0,
        1.0
      ],
      "type": "VEC4"
    },
    {
      "bufferView": 0,
      "byteOffset": 9837552,
      "componentType": 5125,
      "count": 71412,
      "type": "SCALAR"
    },
    {
      "bufferView": 1,
      "byteOffset": 11674416,
      "componentType": 5126,
      "count": 5198,
      "max": [
        0.10539081692695618,
        -0.9916622638702393,
        0.3042781352996826
      ],
      "min": [
        -0.10560610890388489,
        -1.282396912574768,
        0.0826243907213211
      ],
      "type": "VEC3"
    },
    {
      "bufferView": 1,
      "byteOffset": 11736792,
      "componentType": 5126,
      "count": 5198,
      "max": [
        0.996397852897644,
        0.9999900460243225,
        0.9994626045227051
      ],
      "min": [
        -0.9997832775115967,
        -0.9983137845993042,
        -0.9982057213783264
      ],
      "type": "VEC3"
    },
    {
      "bufferView": 2,
      "byteOffset": 7782944,
      "componentType": 5126,
      "count": 5198,
      "max": [
        0.9176470637321472,
        0.46666666865348816,
        0.46666666865348816,
        1.0
      ],
      "min": [
        0.08627451211214066,
        0.0470588244497776,
        0.0470588244497776,
        1.0
      ],
      "type": "VEC4"
    },
    {
      "bufferView": 0,
      "byteOffset": 10123200,
      "componentType": 5125,
      "count": 31176,
      "type": "SCALAR"
    },
    {
      "bufferView": 1,
      "byteOffset": 11799168,
      "componentType": 5126,
      "count": 12964,
      "max": [
        0.7419503331184387,
        -0.48173245787620544,
        1.0144888162612915
      ],
      "min": [
        -0.741950273513794,
        -0.9196944236755371,
        0.6264185309410095
      ],
      "type": "VEC3"
    },
    {
      "bufferView": 1,
      "byteOffset": 11954736,
      "componentType": 5126,
      "count": 12964,
      "max": [
        0.9995701313018799,
        0.9978492259979248,
        0.9990116357803345
      ],
      "min": [
        -0.9995701313018799,
        -0.9850054979324341,
        -0.9997342228889465
      ],
      "type": "VEC3"
    },
    {
      "bufferView": 2,
      "byteOffset": 7866112,
      "componentType": 5126,
      "count": 12964,
      "max": [
        0.8627451062202454,
        0.8745098114013672,
        0.9019607901573181,
        1.0
      ],
      "min": [
        0.15294118225574493,
        0.21176470816135406,
        0.4745098054409027,
        1.0
      ],
      "type": "VEC4"
    },
    {
      "bufferView": 0,
      "byteOffset": 10247904,
      "componentType": 5125,
      "count": 77760,
      "type": "SCALAR"
    },
    {
      "bufferView": 1,
      "byteOffset": 12110304,
      "componentType": 5126,
      "count": 6958,
      "max": [
        0.7959679365158081,
        1.6361761093139648,
        0.25208908319473267
      ],
      "min": [
        -0.7891726493835449,
        1.130065679550171,
        0.08894345909357071
      ],
      "type": "VEC3"
    },
    {
      "bufferView": 1,
      "byteOffset": 12193800,
      "componentType": 5126,
      "count": 6958,
      "max": [
        0.9996315240859985,
        0.9970710277557373,
        0.9997653365135193
      ],
      "min": [
        -0.9998241066932678,
        -0.9913936257362366,
        -0.9998196959495544
      ],
      "type": "VEC3"
    },
    {
      "bufferView": 2,
      "byteOffset": 8073536,
      "componentType": 5126,
      "count": 6958,
      "max": [
        0.8627451062202454,
        0.8745098114013672,
        0.9019607901573181,
        1.0
      ],
      "min": [
        0.1568627506494522,
        0.21568627655506134,
        0.4745098054409027,
        1.0
      ],
      "type": "VEC4"
    },
    {
      "bufferView": 0,
      "byteOffset": 10558944,
      "componentType": 5125,
      "count": 41256,
      "type": "SCALAR"
    },
    {
      "bufferView": 1,
      "byteOffset": 12277296,
      "componentType": 5126,
      "count": 3786,
      "max": [
        0.23681657016277313,
        -1.1391346454620361,
        0.6095619201660156
      ],
      "min": [
        -0.2368166297674179,
        -1.2819095849990845,
        0.5085960626602173
      ],
      "type": "VEC3"
    },
    {
      "bufferView": 1,
      "byteOffset": 12322728,
      "componentType": 5126,
      "count": 3786,
      "max": [
        0.9889878630638123,
        0.9996216893196106,
        0.9988740682601929
      ],
      "min": [
        -0.9890109300613403,
        -0.9999170303344727,
        -0.9967982172966003
      ],
      "type": "VEC3"
    },
    {
      "bufferView": 2,
      "byteOffset": 8184864,
      "componentType": 5126,
      "count": 3786,
      "max": [
        0.13725490868091583,
        0.13725490868091583,
        0.13725490868091583,
        1.0
      ],
      "min": [
        0.13725490868091583,
        0.13725490868091583,
        0.13725490868091583,
        1.0
      ],
      "type": "VEC4"
    },
    {
      "bufferView": 0,
      "byteOffset": 10723968,
      "componentType": 5125,
      "count": 22488,
      "type": "SCALAR"
    },
    {
      "bufferView": 1,
      "byteOffset": 12368160,
      "componentType": 5126,
      "count": 10028,
      "max": [
        0.6149541735649109,
        0.9677375555038452,
        0.7442744970321655
      ],
      "min": [
        -0.614682137966156,
        -0.8988056182861328,
        -1.1762338876724243
      ],
      "type": "VEC3"
    },
    {
      "bufferView": 1,
      "byteOffset": 12488496,
      "componentType": 5126,
      "count": 10028,
      "max": [
        0.9996403455734253,
        0.9995678663253784,
        0.9940446019172668
      ],
      "min": [
        -0.9996403455734253,
        -0.9951609373092651,
        -0.9999968409538269
      ],
      "type": "VEC3"
    },
    {
      "bufferView": 2,
      "byteOffset": 8245440,
      "componentType": 5126,
      "count": 10028,
      "max": [
        0.9215686321258545,
        0.8745098114013672,
        0.9019607901573181,
        1.0
      ],
      "min": [
        0.15294118225574493,
        0.07450980693101883,
        0.24705882370471954,
        1.0
      ],
      "type": "VEC4"
    },
    {
      "bufferView": 0,
      "byteOffset": 10813920,
      "componentType": 5125,
      "count": 59568,
      "type": "SCALAR"
    },
    {
      "bufferView": 1,
      "byteOffset": 12608832,
      "componentType": 5126,
      "count": 6935,
      "max": [
        0.7673548460006714,
        1.5570367574691772,
        0.5880114436149597
      ],
      "min": [
        -0.7622904777526855,
        1.1271017789840698,
        0.17420348525047302
      ],
      "type": "VEC3"
    },
    {
      "bufferView": 1,
      "byteOffset": 12692052,
      "componentType": 5126,
      "count": 6935,
      "max": [
        0.9996871948242188,
        0.9979302883148193,
        0.9994320869445801
      ],
      "min": [
        -0.9991207122802734,
        -0.9933876991271973,
        -0.9880353212356567
      ],
      "type": "VEC3"
    },
    {
      "bufferView": 2,
      "byteOffset": 8405888,
      "componentType": 5126,
      "count": 6935,
      "max": [
        0.8627451062202454,
        0.8745098114013672,
        0.9019607901573181,
        1.0
      ],
      "min": [
        0.1568627506494522,
        0.21568627655506134,
        0.4745098054409027,
        1.0
      ],
      "type": "VEC4"
    },
    {
      "bufferView": 0,
      "byteOffset": 11052192,
      "componentType": 5125,
      "count": 41256,
      "type": "SCALAR"
    },
    {
      "bufferView": 1,
      "byteOffset": 12775272,
      "componentType": 5126,
      "count": 19817,
      "max": [
        0.21079835295677185,
        2.9414126873016357,
        0.6292712688446045
      ],
      "min": [
        -0.31494325399398804,
        1.2967442274093628,
        0.058969151228666306
      ],
      "type": "VEC3"
    },
    {
      "bufferView": 1,
      "byteOffset": 13013076,
      "componentType": 5126,
      "count": 19817,
      "max": [
        0.9999167323112488,
        0.9996059536933899,
        0.9999122619628906
      ],
      "min": [
        -0.9999964833259583,
        -0.999975323677063,
        -0.99998939037323
      ],
      "type": "VEC3"
    },
    {
      "bufferView": 2,
      "byteOffset": 8516848,
      "componentType": 5126,
      "count": 19817,
      "max": [
        0.41960784792900085,
        0.5215686559677124,
        0.7568627595901489,
        1.0
      ],
      "min": [
        0.15294118225574493,
        0.21176470816135406,
        0.4745098054409027,
        1.0
      ],
      "type": "VEC4"
    },
    {
      "bufferView": 0,
      "byteOffset": 11217216,
      "componentType": 5125,
      "count": 118236,
      "type": "SCALAR"
    },
    {
      "bufferView": 1,
      "byteOffset": 13250880,
      "componentType": 5126,
      "count": 7024,
      "max": [
        0.7177578210830688,
        0.7015613317489624,
        1.0494325160980225
      ],
      "min": [
        -0.7177577614784241,
        -0.062291018664836884,
        0.5558609366416931
      ],
      "type": "VEC3"
    },
    {
      "bufferView": 1,
      "byteOffset": 13335168,
      "componentType": 5126,
      "count": 7024,
      "max": [
        0.9987041354179382,
        0.994110643863678,
        0.9967496395111084
      ],
      "min": [
        -0.9987029433250427,
        -0.9864665865898132,
        -0.998680830001831
      ],
      "type": "VEC3"
    },
    {
      "bufferView": 2,
      "byteOffset": 8833920,
      "componentType": 5126,
      "count": 7024,
      "max": [
        0.8627451062202454,
        0.8745098114013672,
        0.9019607901573181,
        1.0
      ],
      "min": [
        0.15294118225574493,
        0.21176470816135406,
        0.4745098054409027,
        1.0
      ],
      "type": "VEC4"
    },
    {
      "bufferView": 0,
      "byteOffset": 11690160,
      "componentType": 5125,
      "count": 41280,
      "type": "SCALAR"
    },
    {
      "bufferView": 1,
      "byteOffset": 13419456,
      "componentType": 5126,
      "count": 7218,
      "max": [
        0.2725355327129364,
        -0.7193995714187622,
        0.30129146575927734
      ],
      "min": [
        -0.272535502910614,
        -0.8985790014266968,
        -0.13801397383213043
      ],
      "type": "VEC3"
    },
    {
      "bufferView": 1,
      "byteOffset": 13506072,
      "componentType": 5126,
      "count": 7218,
      "max": [
        0.9965754747390747,
        0.9997780919075012,
        0.9978367686271667
      ],
      "min": [
        -0.996575653553009,
        -0.9837990999221802,
        -0.9923964142799377
      ],
      "type": "VEC3"
    },
    {
      "bufferView": 2,
      "byteOffset": 8946304,
      "componentType": 5126,
      "count": 7218,
      "max": [
        0.8627451062202454,
        0.8745098114013672,
        0.9019607901573181,
        1.0
      ],
      "min": [
        0.15294118225574493,
        0.21176470816135406,
        0.4745098054409027,
        1.0
      ],
      "type": "VEC4"
    },
    {
      "bufferView": 0,
      "byteOffset": 11855280,
      "componentType": 5125,
      "count": 43200,
      "type": "SCALAR"
    },
    {
      "bufferView": 1,
      "byteOffset": 13592688,
      "componentType": 5126,
      "count": 3776,
      "max": [
        0.6804782748222351,
        1.012383222579956,
        0.6034685373306274
      ],
      "min": [
        -0.6804782748222351,
        -1.268363356590271,
        -1.1784223318099976
      ],
      "type": "VEC3"
    },
    {
      "bufferView": 1,
      "byteOffset": 13638000,
      "componentType": 5126,
      "count": 3776,
      "max": [
        0.9995298385620117,
        0.9992411136627197,
        0.9869980812072754
      ],
      "min": [
        -0.9995298385620117,
        -0.9936010837554932,
        -0.9999755620956421
      ],
      "type": "VEC3"
    },
    {
      "bufferView": 2,
      "byteOffset": 9061792,
      "componentType": 5126,
      "count": 3776,
      "max": [
        1.0,
        0.9960784316062927,
        0.9882352948188782,
        1.0
      ],
      "min": [
        0.0,
        0.0,
        0.0,
        1.0
      ],
      "type": "VEC4"
    },
    {
      "bufferView": 0,
      "byteOffset": 12028080,
      "componentType": 5125,
      "count": 20448,
      "type": "SCALAR"
    },
    {
      "bufferView": 1,
      "byteOffset": 13683312,
      "componentType": 5126,
      "count": 6929,
      "max": [
        0.885353147983551,
        1.5001511573791504,
        0.37238290905952454
      ],
      "min": [
        -0.878449022769928,
        1.1369926929473877,
        0.15819700062274933
      ],
      "type": "VEC3"
    },
    {
      "bufferView": 1,
      "byteOffset": 13766460,
      "componentType": 5126,
      "count": 6929,
      "max": [
        0.9976779222488403,
        0.9976378679275513,
        0.9999523162841797
      ],
      "min": [
        -0.9938018918037415,
        -0.9909650683403015,
        -0.9997029900550842
      ],
      "type": "VEC3"
    },
    {
      "bufferView": 2,
      "byteOffset": 9122208,
      "componentType": 5126,
      "count": 6929,
      "max": [
        0.8627451062202454,
        0.8745098114013672,
        0.9019607901573181,
        1.0
      ],
      "min": [
        0.1568627506494522,
        0.21568627655506134,
        0.4745098054409027,
        1.0
      ],
      "type": "VEC4"
    },
    {
      "bufferView": 0,
      "byteOffset": 12109872,
      "componentType": 5125,
      "count": 41256,
      "type": "SCALAR"
    }
  ],
  "asset": {
    "extras": {
      "author": "kishi (https://sketchfab.com/ash.takafumi)",
      "license": "CC-BY-4.0 (http://creativecommons.org/licenses/by/4.0/)",
      "source": "https://sketchfab.com/3d-models/digimon-garurumon-3a4230d8c0ac4fefb9e1343f1350f268",
      "title": "Digimon Garurumon"
    },
    "generator": "Sketchfab-12.67.0",
    "version": "2.0"
  },
  "bufferViews": [
    {
      "buffer": 0,
      "byteLength": 12274896,
      "name": "floatBufferViews",
      "target": 34963
    },
    {
      "buffer": 0,
      "byteLength": 13849608,
      "byteOffset": 12274896,
      "byteStride": 12,
      "name": "floatBufferViews",
      "target": 34962
    },
    {
      "buffer": 0,
      "byteLength": 9233072,
      "byteOffset": 26124504,
      "byteStride": 16,
      "name": "floatBufferViews",
      "target": 34962
    }
  ],
  "buffers": [
    {
      "byteLength": 35357576,
      "uri": "scene.bin"
    }
  ],
  "materials": [
    {
      "doubleSided": true,
      "name": "material_0",
      "pbrMetallicRoughness": {
        "baseColorFactor": [
          0.48410289256746025,
          0.48410289256746025,
          0.48410289256746025,
          1.0
        ],
        "metallicFactor": 0.20439617334799673,
        "roughnessFactor": 0.5570698506965874
      }
    }
  ],
  "meshes": [
    {
      "name": "Object_0",
      "primitives": [
        {
          "attributes": {
            "COLOR_0": 2,
            "NORMAL": 1,
            "POSITION": 0
          },
          "indices": 3,
          "material": 0,
          "mode": 4
        }
      ]
    },
    {
      "name": "Object_1",
      "primitives": [
        {
          "attributes": {
            "COLOR_0": 6,
            "NORMAL": 5,
            "POSITION": 4
          },
          "indices": 7,
          "material": 0,
          "mode": 4
        }
      ]
    },
    {
      "name": "Object_2",
      "primitives": [
        {
          "attributes": {
            "COLOR_0": 10,
            "NORMAL": 9,
            "POSITION": 8
          },
          "indices": 11,
          "material": 0,
          "mode": 4
        }
      ]
    },
    {
      "name": "Object_3",
      "primitives": [
        {
          "attributes": {
            "COLOR_0": 14,
            "NORMAL": 13,
            "POSITION": 12
          },
          "indices": 15,
          "material": 0,
          "mode": 4
        }
      ]
    },
    {
      "name": "Object_4",
      "primitives": [
        {
          "attributes": {
            "COLOR_0": 18,
            "NORMAL": 17,
            "POSITION": 16
          },
          "indices": 19,
          "material": 0,
          "mode": 4
        }
      ]
    },
    {
      "name": "Object_5",
      "primitives": [
        {
          "attributes": {
            "COLOR_0": 22,
            "NORMAL": 21,
            "POSITION": 20
          },
          "indices": 23,
          "material": 0,
          "mode": 4
        }
      ]
    },
    {
      "name": "Object_6",
      "primitives": [
        {
          "attributes": {
            "COLOR_0": 26,
            "NORMAL": 25,
            "POSITION": 24
          },
          "indices": 27,
          "material": 0,
          "mode": 4
        }
      ]
    },
    {
      "name": "Object_7",
      "primitives": [
        {
          "attributes": {
            "COLOR_0": 30,
            "NORMAL": 29,
            "POSITION": 28
          },
          "indices": 31,
          "material": 0,
          "mode": 4
        }
      ]
    },
    {
      "name": "Object_8",
      "primitives": [
        {
          "attributes": {
            "COLOR_0": 34,
            "NORMAL": 33,
            "POSITION": 32
          },
          "indices": 35,
          "material": 0,
          "mode": 4
        }
      ]
    },
    {
      "name": "Object_9",
      "primitives": [
        {
          "attributes": {
            "COLOR_0": 38,
            "NORMAL": 37,
            "POSITION": 36
          },
          "indices": 39,
          "material": 0,
          "mode": 4
        }
      ]
    },
    {
      "name": "Object_10",
      "primitives": [
        {
          "attributes": {
            "COLOR_0": 42,
            "NORMAL": 41,
            "POSITION": 40
          },
          "indices": 43,
          "material": 0,
          "mode": 4
        }
      ]
    },
    {
      "name": "Object_11",
      "primitives": [
        {
          "attributes": {
            "COLOR_0": 46,
            "NORMAL": 45,
            "POSITION": 44
          },
          "indices": 47,
          "material": 0,
          "mode": 4
        }
      ]
    },
    {
      "name": "Object_12",
      "primitives": [
        {
          "attributes": {
            "COLOR_0": 50,
            "NORMAL": 49,
            "POSITION": 48
          },
          "indices": 51,
          "material": 0,
          "mode": 4
        }
      ]
    },
    {
      "name": "Object_13",
      "primitives": [
        {
          "attributes": {
            "COLOR_0": 54,
            "NORMAL": 53,
            "POSITION": 52
          },
          "indices": 55,
          "material": 0,
          "mode": 4
        }
      ]
    },
    {
      "name": "Object_14",
      "primitives": [
        {
          "attributes": {
            "COLOR_0": 58,
            "NORMAL": 57,
            "POSITION": 56
          },
          "indices": 59,
          "material": 0,
          "mode": 4
        }
      ]
    },
    {
      "name": "Object_15",
      "primitives": [
        {
          "attributes": {
            "COLOR_0": 62,
            "NORMAL": 61,
            "POSITION": 60
          },
          "indices": 63,
          "material": 0,
          "mode": 4
        }
      ]
    },
    {
      "name": "Object_16",
      "primitives": [
        {
          "attributes": {
            "COLOR_0": 66,
            "NORMAL": 65,
            "POSITION": 64
          },
          "indices": 67,
          "material": 0,
          "mode": 4
        }
      ]
    },
    {
      "name": "Object_17",
      "primitives": [
        {
          "attributes": {
            "COLOR_0": 70,
            "NORMAL": 69,
            "POSITION": 68
          },
          "indices": 71,
          "material": 0,
          "mode": 4
        }
      ]
    },
    {
      "name": "Object_18",
      "primitives": [
        {
          "attributes": {
            "COLOR_0": 74,
            "NORMAL": 73,
            "POSITION": 72
          },
          "indices": 75,
          "material": 0,
          "mode": 4
        }
      ]
    },
    {
      "name": "Object_19",
      "primitives": [
        {
          "attributes": {
            "COLOR_0": 78,
            "NORMAL": 77,
            "POSITION": 76
          },
          "indices": 79,
          "material": 0,
          "mode": 4
        }
      ]
    },
    {
      "name": "Object_20",
      "primitives": [
        {
          "attributes": {
            "COLOR_0": 82,
            "NORMAL": 81,
            "POSITION": 80
          },
          "indices": 83,
          "material": 0,
          "mode": 4
        }
      ]
    },
    {
      "name": "Object_21",
      "primitives": [
        {
          "attributes": {
            "COLOR_0": 86,
            "NORMAL": 85,
            "POSITION": 84
          },
          "indices": 87,
          "material": 0,
          "mode": 4
        }
      ]
    },
    {
      "name": "Object_22",
      "primitives": [
        {
          "attributes": {
            "COLOR_0": 90,
            "NORMAL": 89,
            "POSITION": 88
          },
          "indices": 91,
          "material": 0,
          "mode": 4
        }
      ]
    },
    {
      "name": "Object_23",
      "primitives": [
        {
          "attributes": {
            "COLOR_0": 94,
            "NORMAL": 93,
            "POSITION": 92
          },
          "indices": 95,
          "material": 0,
          "mode": 4
        }
      ]
    },
    {
      "name": "Object_24",
      "primitives": [
        {
          "attributes": {
            "COLOR_0": 98,
            "NORMAL": 97,
            "POSITION": 96
          },
          "indices": 99,
          "material": 0,
          "mode": 4
        }
      ]
    },
    {
      "name": "Object_25",
      "primitives": [
        {
          "attributes": {
            "COLOR_0": 102,
            "NORMAL": 101,
            "POSITION": 100
          },
          "indices": 103,
          "material": 0,
          "mode": 4
        }
      ]
    },
    {
      "name": "Object_26",
      "primitives": [
        {
          "attributes": {
            "COLOR_0": 106,
            "NORMAL": 105,
            "POSITION": 104
          },
          "indices": 107,
          "material": 0,
          "mode": 4
        }
      ]
    },
    {
      "name": "Object_27",
      "primitives": [
        {
          "attributes": {
            "COLOR_0": 110,
            "NORMAL": 109,
            "POSITION": 108
          },
          "indices": 111,
          "material": 0,
          "mode": 4
        }
      ]
    },
    {
      "name": "Object_28",
      "primitives": [
        {
          "attributes": {
            "COLOR_0": 114,
            "NORMAL": 113,
            "POSITION": 112
          },
          "indices": 115,
          "material": 0,
          "mode": 4
        }
      ]
    }
  ],
  "nodes": [
    {
      "children": [
        1
      ],
      "matrix": [
        1.0,
        0.0,
        0.0,
        0.0,
        0.0,
        2.220446049250313e-16,
        -1.0,
        0.0,
        0.0,
        1.0,
        2.220446049250313e-16,
        0.0,
        0.0,
        0.0,
        0.0,
        1.0
      ],
      "name": "Sketchfab_model"
    },
    {
      "children": [
        2,
        3,
        4,
        5,
        6,
        7,
        8,
        9,
        10,
        11,
        12,
        13,
        14,
        15,
        16,
        17,
        18,
        19,
        20,
        21,
        22,
        23,
        24,
        25,
        26,
        27,
        28,
        29,
        30
      ],
      "name": "garurumon.obj.cleaner.materialmerger.gles"
    },
    {
      "mesh": 0,
      "name": "Object_2"
    },
    {
      "mesh": 1,
      "name": "Object_3"
    },
    {
      "mesh": 2,
      "name": "Object_4"
    },
    {
      "mesh": 3,
      "name": "Object_5"
    },
    {
      "mesh": 4,
      "name": "Object_6"
    },
    {
      "mesh": 5,
      "name": "Object_7"
    },
    {
      "mesh": 6,
      "name": "Object_8"
    },
    {
      "mesh": 7,
      "name": "Object_9"
    },
    {
      "mesh": 8,
      "name": "Object_10"
    },
    {
      "mesh": 9,
      "name": "Object_11"
    },
    {
      "mesh": 10,
      "name": "Object_12"
    },
    {
      "mesh": 11,
      "name": "Object_13"
    },
    {
      "mesh": 12,
      "name": "Object_14"
    },
    {
      "mesh": 13,
      "name": "Object_15"
    },
    {
      "mesh": 14,
      "name": "Object_16"
    },
    {
      "mesh": 15,
      "name": "Object_17"
    },
    {
      "mesh": 16,
      "name": "Object_18"
    },
    {
      "mesh": 17,
      "name": "Object_19"
    },
    {
      "mesh": 18,
      "name": "Object_20"
    },
    {
      "mesh": 19,
      "name": "Object_21"
    },
    {
      "mesh": 20,
      "name": "Object_22"
    },
    {
      "mesh": 21,
      "name": "Object_23"
    },
    {
      "mesh": 22,
      "name": "Object_24"
    },
    {
      "mesh": 23,
      "name": "Object_25"
    },
    {
      "mesh": 24,
      "name": "Object_26"
    },
    {
      "mesh": 25,
      "name": "Object_27"
    },
    {
      "mesh": 26,
      "name": "Object_28"
    },
    {
      "mesh": 27,
      "name": "Object_29"
    },
    {
      "mesh": 28,
      "name": "Object_30"
    }
  ],
  "scene": 0,
  "scenes": [
    {
      "name": "Sketchfab_Scene",
      "nodes": [
        0
      ]
    }
  ]
}
